<svg width="21" height="17" viewBox="0 0 21 17" fill="none" xmlns="http://www.w3.org/2000/svg">
<g clip-path="url(#clip0)">
<path d="M20.36 4.87163C20.3123 3.9912 20.1372 3.38591 19.8863 2.86142C19.6275 2.30469 19.2294 1.80625 18.7078 1.39189C18.1982 0.971089 17.5811 0.644106 16.9043 0.436991C16.2555 0.233037 15.5149 0.0906611 14.432 0.0518429C13.3411 0.00973712 12.9947 9.53674e-07 10.2278 9.53674e-07C7.46081 9.53674e-07 7.11447 0.00973712 6.02756 0.0485554C4.94469 0.0873736 4.20023 0.229876 3.5553 0.433703C2.87041 0.644106 2.25736 0.967802 1.74773 1.39189C1.23017 1.80625 0.828153 2.30798 0.573261 2.85826C0.322412 3.38591 0.147299 3.98791 0.0995553 4.86834C0.0477681 5.75534 0.0357933 6.03693 0.0357933 8.28662C0.0357933 10.5363 0.0477681 10.8179 0.0955119 11.7016C0.143256 12.582 0.318524 13.1873 0.569373 13.7118C0.828153 14.2685 1.23017 14.767 1.74773 15.1813C2.25736 15.6022 2.87445 15.9291 3.55126 16.1362C4.20023 16.3402 4.94065 16.4826 6.02367 16.5214C7.11043 16.5603 7.45692 16.57 10.2239 16.57C12.9908 16.57 13.3372 16.5603 14.4241 16.5214C15.507 16.4826 16.2514 16.3402 16.8963 16.1362C18.266 15.7057 19.3489 14.8253 19.8784 13.7118C20.1291 13.1842 20.3043 12.582 20.3521 11.7016C20.3998 10.8179 20.4118 10.5363 20.4118 8.28662C20.4118 6.03693 20.4078 5.75534 20.36 4.87163ZM18.5248 11.6369C18.4809 12.4461 18.3137 12.8831 18.1744 13.1744C17.8319 13.8963 17.1273 14.4692 16.2394 14.7476C15.8811 14.8609 15.3398 14.9969 14.3484 15.0324C13.2734 15.0713 12.951 15.0809 10.2318 15.0809C7.51259 15.0809 7.18616 15.0713 6.11512 15.0324C5.11981 14.9969 4.58234 14.8609 4.22403 14.7476C3.7822 14.6149 3.38003 14.4045 3.0536 14.1293C2.7152 13.8606 2.45642 13.5369 2.29313 13.1777C2.15378 12.8864 1.9866 12.4461 1.9429 11.6402C1.895 10.7662 1.88318 10.5039 1.88318 8.29307C1.88318 6.0822 1.895 5.81679 1.9429 4.9461C1.9866 4.13686 2.15378 3.69987 2.29313 3.40855C2.45642 3.04919 2.7152 2.72234 3.05765 2.4568C3.38797 2.18166 3.78609 1.97126 4.22807 1.83862C4.58638 1.72533 5.12789 1.5894 6.11916 1.55374C7.19409 1.51492 7.51664 1.50519 10.2357 1.50519C12.959 1.50519 13.2813 1.51492 14.3524 1.55374C15.3477 1.5894 15.8852 1.72533 16.2435 1.83862C16.6853 1.97126 17.0875 2.18166 17.4139 2.4568C17.7523 2.7255 18.0111 3.04919 18.1744 3.40855C18.3137 3.69987 18.4809 4.14002 18.5248 4.9461C18.5725 5.82008 18.5845 6.0822 18.5845 8.29307C18.5845 10.5039 18.5725 10.7629 18.5248 11.6369Z" fill="white"/>
<path d="M10.2278 4.03002C7.33751 4.03002 4.99246 5.93654 4.99246 8.28663C4.99246 10.6367 7.33751 12.5432 10.2278 12.5432C13.1182 12.5432 15.4631 10.6367 15.4631 8.28663C15.4631 5.93654 13.1182 4.03002 10.2278 4.03002ZM10.2278 11.0478C8.35272 11.0478 6.83176 9.81129 6.83176 8.28663C6.83176 6.76196 8.35272 5.52547 10.2278 5.52547C12.103 5.52547 13.6238 6.76196 13.6238 8.28663C13.6238 9.81129 12.103 11.0478 10.2278 11.0478V11.0478Z" fill="white"/>
<path d="M16.8925 3.86172C16.8925 4.41048 16.3452 4.85544 15.6701 4.85544C14.9952 4.85544 14.4479 4.41048 14.4479 3.86172C14.4479 3.31283 14.9952 2.868 15.6701 2.868C16.3452 2.868 16.8925 3.31283 16.8925 3.86172V3.86172Z" fill="white"/>
</g>
<defs>
<clipPath id="clip0">
<rect width="20.38" height="16.57" fill="white"/>
</clipPath>
</defs>
</svg>
